<svg xmlns="http://www.w3.org/2000/svg" viewBox="0 0 500 500">
  <!-- White background with rounded corners (standard icon) -->
  <rect width="500" height="500" rx="80" fill="#ffffff"/>

  <!-- ── Nelumbus "N" logo ─────────────────────────────────────── -->
  <!-- Left leg of N — cyan, rounded at bottom-left -->
  <path d="M 68 430 L 68 115 Q 68 70 113 70 L 163 70 Q 208 70 208 115 L 208 310 L 290 115 Q 310 70 355 70 L 405 70 Q 430 70 430 95 L 430 430 L 430 430 Q 430 460 400 460 L 355 460 Q 318 460 318 428 L 318 228 L 235 428 Q 215 460 175 460 L 100 460 Q 68 460 68 430 Z"
        fill="#1B3170"/>

  <!-- Left outer leg — bright cyan overlay -->
  <path d="M 68 430 L 68 115 Q 68 70 113 70 L 163 70 Q 195 70 205 95 L 205 310 L 175 370 L 175 115 Q 175 158 133 158 L 133 430 Q 133 460 100 460 L 80 460 Q 68 455 68 430 Z"
        fill="#00C8FF"/>

  <!-- Right outer leg — bright cyan -->
  <path d="M 430 95 L 430 430 Q 430 460 400 460 L 355 460 Q 325 460 318 435 L 318 228 L 348 168 L 348 430 Q 348 385 395 385 L 395 95 Q 395 70 430 70 L 430 95 Z"
        fill="#00C8FF"/>

  <!-- White horizontal stripes on right leg (4 stripes) -->
  <rect x="352" y=" 82" width="74" height="13" rx="4" fill="#ffffff"/>
  <rect x="352" y="105" width="74" height="13" rx="4" fill="#ffffff"/>
  <rect x="352" y="128" width="74" height="13" rx="4" fill="#ffffff"/>
  <rect x="352" y="151" width="74" height="13" rx="4" fill="#ffffff"/>
</svg>
